Coordinates
version=1
nRows=21
nColumns=12
inDegrees=yes

Units are S.I. units (second, meters, Newtons, ...)
Angles are in degrees

endheader
time	SC_y	SC_z	SC_x	AC_y	AC_z	AC_x	GH_y	GH_z	GH_yy	EL_x	PS_y
       0.0              -34.51          31.79          72.95          46.15          9.551         -13.67         -100.1          60.11         -126.3          81.15          134.2
   0.02244              -34.51          31.78          72.95          46.15          9.549         -13.66         -100.1          60.11         -126.4          81.14          134.2
   0.04487              -34.52          31.78          72.95          46.15          9.547         -13.66         -100.1          60.11         -126.4          81.13          134.1
   0.06731              -34.52          31.78          72.95          46.15          9.545         -13.66         -100.1          60.11         -126.4          81.12          134.1
   0.08974              -34.52          31.78          72.95          46.15          9.543         -13.65         -100.1          60.11         -126.4          81.11          134.1
    0.1122              -34.52          31.77          72.95          46.16           9.54         -13.65         -100.1          60.11         -126.4          81.09          134.1
    0.1346              -34.53          31.77          72.95          46.16          9.538         -13.65         -100.1          60.12         -126.4          81.08          134.1
     0.157              -34.53          31.77          72.96          46.16          9.535         -13.64         -100.1          60.12         -126.4          81.06          134.0
    0.1795              -34.53          31.76          72.96          46.16          9.532         -13.64         -100.1          60.12         -126.4          81.05          134.0
    0.2019              -34.54          31.76          72.96          46.16          9.529         -13.63         -100.1          60.12         -126.4          81.03          134.0
    0.2244              -34.54          31.75          72.96          46.17          9.525         -13.63         -100.1          60.12         -126.4          81.01          134.0
    0.2468              -34.54          31.75          72.96          46.17          9.522         -13.62         -100.1          60.13         -126.4          80.99          133.9
    0.2692              -34.55          31.74          72.97          46.17          9.518         -13.61         -100.1          60.13         -126.4          80.97          133.9
    0.2917              -34.55          31.74          72.97          46.17          9.514         -13.61         -100.1          60.13         -126.4          80.94          133.8
    0.3141              -34.56          31.73          72.97          46.18          9.509          -13.6         -100.1          60.13         -126.4          80.92          133.8
    0.3365              -34.56          31.72          72.97          46.18          9.504         -13.59         -100.1          60.14         -126.4          80.89          133.8
     0.359              -34.57          31.72          72.98          46.18          9.499         -13.58         -100.1          60.14         -126.4          80.86          133.7
    0.3814              -34.58          31.71          72.98          46.19          9.493         -13.57         -100.1          60.14         -126.4          80.83          133.7
    0.4038              -34.58           31.7          72.98          46.19          9.486         -13.56         -100.1          60.15         -126.4          80.79          133.6
    0.4263              -34.59          31.69          72.99           46.2          9.479         -13.55         -100.0          60.15         -126.4          80.75          133.5
    0.4487               -34.6          31.68          72.99           46.2          9.472         -13.53         -100.0          60.15         -126.4          80.71          133.5
